<?xml version="1.0" encoding="utf-8"?>
<!-- Generator: Adobe Illustrator 19.2.0, SVG Export Plug-In . SVG Version: 6.00 Build 0)  -->
<svg version="1.1" id="Слой_1" xmlns="http://www.w3.org/2000/svg" xmlns:xlink="http://www.w3.org/1999/xlink" x="0px" y="0px"
	 viewBox="0 0 57.5 46.3" style="enable-background:new 0 0 57.5 46.3;" xml:space="preserve">
<style type="text/css">
	.st0{fill:#F2F2F2;}
	.st1{fill:#999B2D;}
	.st2{fill:#C3C644;}
	.st3{fill:#FF4800;}
	.st4{fill:#3A2C1F;}
</style>
<g>
	<g>
		<path class="st0" d="M23,28.3c-2,1.7-4.9,2.5-8.7,2.5H7.2v12.4H0V8.7h14.8c3.4,0,6.1,0.9,8.2,2.7s3,4.5,3,8.3
			C26.1,23.7,25.1,26.6,23,28.3z M17.5,15.8c-0.9-0.8-2.2-1.1-3.8-1.1H7.2v10.2h6.5c1.6,0,2.9-0.4,3.8-1.2s1.4-2.1,1.4-3.9
			S18.4,16.6,17.5,15.8z"/>
	</g>
	<g>
		<path class="st0" d="M18.8,35.1h-7v2.8h6.4v2.3h-6.4v3.4h7.3v2.4h-10V32.8h9.7V35.1z"/>
		<path class="st0" d="M30.1,40.2c-0.8,0.6-1.9,1-3.3,1h-2.7v4.7h-2.7V32.8H27c1.3,0,2.3,0.3,3.1,1c0.8,0.7,1.2,1.7,1.2,3.2
			C31.3,38.5,30.9,39.6,30.1,40.2z M28,35.5c-0.3-0.3-0.8-0.4-1.5-0.4h-2.5v3.9h2.5c0.6,0,1.1-0.2,1.5-0.5s0.5-0.8,0.5-1.5
			S28.4,35.8,28,35.5z"/>
		<path class="st0" d="M43.6,44.8c-1,1-2.4,1.5-4.3,1.5c-1.9,0-3.3-0.5-4.3-1.5c-1.3-1.3-2-3.1-2-5.4c0-2.4,0.7-4.2,2-5.4
			c1-1,2.4-1.5,4.3-1.5c1.9,0,3.3,0.5,4.3,1.5c1.3,1.2,2,3,2,5.4C45.6,41.7,44.9,43.5,43.6,44.8z M41.9,42.7c0.6-0.8,1-1.9,1-3.4
			c0-1.5-0.3-2.6-1-3.4c-0.6-0.8-1.5-1.2-2.6-1.2c-1.1,0-2,0.4-2.6,1.2c-0.6,0.8-1,1.9-1,3.4s0.3,2.6,1,3.4c0.6,0.8,1.5,1.2,2.6,1.2
			C40.4,44,41.3,43.6,41.9,42.7z"/>
	</g>
	<path class="st1" d="M32.8,24.6c-6.6-6.7-6.8-17.5-0.5-24.4c0.2-0.3,0.7-0.3,0.9,0L57,24.1c0.3,0.3,0.2,0.7,0,0.9
		C50.1,31.4,39.5,31.3,32.8,24.6z"/>
	<path class="st2" d="M33.8,0.7l22.7,23c-6.4,5.9-16.2,5.7-22.3-0.5C28.1,17,27.9,7.1,33.8,0.7z M57.5,24.6L57.5,24.6L57.5,24.6
		L57.5,24.6z"/>
	<path class="st3" d="M54.2,21.3c-5,5.1-13.1,5.1-18.2,0S31,8,36,3L54.2,21.3z"/>
	<path class="st4" d="M39.8,17.5c0.2,0.3,0.2,0.7,0,0.9l-0.1,0.1c-0.1,0.1-0.3,0.2-0.5,0.2c-0.2,0-0.3-0.1-0.5-0.2
		c-0.2-0.3-0.2-0.7,0-0.9l0.1-0.1C39.2,17.3,39.6,17.3,39.8,17.5z M37.4,9.4l-0.1,0c-0.3-0.1-0.7,0.1-0.8,0.5
		c-0.1,0.3,0.1,0.7,0.5,0.8l0.1,0c0.1,0,0.1,0,0.2,0c0.3,0,0.5-0.2,0.6-0.5C38,9.8,37.7,9.5,37.4,9.4z M37.4,13.6l-0.1,0
		c-0.3-0.1-0.7,0.1-0.8,0.5c-0.1,0.3,0.1,0.7,0.5,0.8l0.1,0c0.1,0,0.1,0,0.2,0c0.3,0,0.5-0.2,0.6-0.5C38,14,37.7,13.7,37.4,13.6z
		 M47.9,20.1l0-0.1c-0.1-0.3-0.4-0.5-0.8-0.5c-0.3,0.1-0.5,0.4-0.5,0.8l0,0.1c0.1,0.3,0.3,0.5,0.6,0.5c0.1,0,0.1,0,0.2,0
		C47.8,20.8,48,20.4,47.9,20.1z M43.7,19.9c-0.1-0.3-0.4-0.5-0.8-0.5c-0.3,0.1-0.5,0.4-0.5,0.8l0,0.1c0.1,0.3,0.3,0.5,0.6,0.5
		c0.1,0,0.1,0,0.2,0c0.3-0.1,0.5-0.4,0.5-0.8L43.7,19.9z"/>
	<rect y="45.6" class="st1" width="7.2" height="0.6"/>
	<rect y="44.6" class="st2" width="7.2" height="0.6"/>
	<rect y="43.6" class="st3" width="7.2" height="0.6"/>
</g>
</svg>
