<?xml version="1.0" encoding="utf-8"?>
<!-- Generator: Adobe Illustrator 19.2.0, SVG Export Plug-In . SVG Version: 6.00 Build 0)  -->
<svg version="1.1" id="Слой_1" xmlns="http://www.w3.org/2000/svg" xmlns:xlink="http://www.w3.org/1999/xlink" x="0px" y="0px"
	 viewBox="0 0 16 14.7" style="enable-background:new 0 0 16 14.7;" xml:space="preserve">
<style type="text/css">
	.st0{fill:#333333;}
</style>
<g>
	<path class="st0" d="M11.4,0C10.1,0,8.9,0.6,8,1.5C7.2,0.6,6,0,4.6,0C2.1,0,0,2.2,0,4.8c0,0.7,0.1,1.4,0.3,2.1c0,0,0.2,0.6,0.4,0.9
		C2.6,12,8,14.7,8,14.7s5.4-2.7,7.3-6.9c0,0,0.3-0.6,0.4-0.9C15.9,6.2,16,5.6,16,4.8C16,2.2,13.9,0,11.4,0z"/>
</g>
</svg>
