<?xml version="1.0" encoding="utf-8"?>
<!-- Generator: Adobe Illustrator 19.2.0, SVG Export Plug-In . SVG Version: 6.00 Build 0)  -->
<svg version="1.1" id="Слой_1" xmlns="http://www.w3.org/2000/svg" xmlns:xlink="http://www.w3.org/1999/xlink" x="0px" y="0px"
	 viewBox="0 0 12.2 15" style="enable-background:new 0 0 12.2 15;" xml:space="preserve">
<g>
	<path d="M9.5,1.3H6.7V0H2.8v1.3H0v2h9.5V1.3z M3.8,1h1.8v0.3H3.8V1z"/>
	<path d="M8.6,7.3l0.2-2.9H0.7l0.6,9.8h3.9c-0.5-0.7-0.8-1.6-0.8-2.5C4.4,9.3,6.3,7.4,8.6,7.3z"/>
	<path d="M8.8,8.3c-1.9,0-3.4,1.5-3.4,3.4S6.9,15,8.8,15s3.4-1.5,3.4-3.4S10.7,8.3,8.8,8.3z M10.6,12.7l-0.7,0.7l-1.1-1.1l-1.1,1.1
		L7,12.7l1.1-1.1L7,10.5l0.7-0.7l1.1,1.1l1.1-1.1l0.7,0.7l-1.1,1.1L10.6,12.7z"/>
</g>
</svg>
