<?xml version="1.0" encoding="utf-8"?>
<!-- Generator: Adobe Illustrator 19.2.0, SVG Export Plug-In . SVG Version: 6.00 Build 0)  -->
<svg version="1.1" id="Слой_1" xmlns="http://www.w3.org/2000/svg" xmlns:xlink="http://www.w3.org/1999/xlink" x="0px" y="0px"
	 viewBox="0 0 16 14.1" style="enable-background:new 0 0 16 14.1;" xml:space="preserve">
<style type="text/css">
	.st0{fill:#333333;}
</style>
<g>
	<path class="st0" d="M8,0C3.6,0,0,2.6,0,5.7c0,2.1,1.6,4.1,4.3,5c0.1,0.5-0.1,1.5-1.8,3c-0.1,0.1-0.1,0.2,0,0.2
		c0,0.1,0.1,0.1,0.2,0.1c0,0,0,0,0.1,0c0.2,0,3.7-1,5.9-2.7c4.2-0.2,7.4-2.7,7.4-5.7C16,2.6,12.4,0,8,0z M11.8,7.7
		C11.8,7.7,11.8,7.7,11.8,7.7c-0.1,0-0.2,0-0.2-0.1c0,0-0.5-1.1-2.3-1.3C9,6.2,8.5,6.2,8,6.2v1.3c0,0.1,0,0.1-0.1,0.1
		c-0.1,0-0.1,0-0.2,0L4.3,5.4c0,0-0.1-0.1-0.1-0.1s0-0.1,0.1-0.1l3.4-2.3c0.1,0,0.1,0,0.2,0C8,2.8,8,2.9,8,2.9v1.2
		c0.7,0.1,4,0.7,4,3.4C12,7.6,11.9,7.7,11.8,7.7z"/>
</g>
</svg>
