<?xml version="1.0" encoding="utf-8"?>
<!-- Generator: Adobe Illustrator 19.2.0, SVG Export Plug-In . SVG Version: 6.00 Build 0)  -->
<svg version="1.1" id="Слой_1" xmlns="http://www.w3.org/2000/svg" xmlns:xlink="http://www.w3.org/1999/xlink" x="0px" y="0px"
	 viewBox="0 0 15 15" style="enable-background:new 0 0 15 15;" xml:space="preserve">
<style type="text/css">
	.st0{fill:#1A1A1A;}
</style>
<g>
	<path class="st0" d="M13.1,5.2v7.9c0,1-0.8,1.9-1.9,1.9H1.9c-1,0-1.9-0.8-1.9-1.9V3.8c0-1,0.8-1.9,1.9-1.9h7.9L7.9,3.8H1.9v9.4h9.4
		V7.1L13.1,5.2z M11.7,1.3L11,2l2,2l0.7-0.7L11.7,1.3z M13,0l-0.7,0.7l2,2L15,2L13,0z M4.4,8.6l2,2l6-6l-2-2L4.4,8.6z M3.8,11.2h1.9
		L3.8,9.4V11.2z"/>
</g>
</svg>
