<?xml version="1.0" encoding="utf-8"?>
<!-- Generator: Adobe Illustrator 17.1.0, SVG Export Plug-In . SVG Version: 6.00 Build 0)  -->
<!DOCTYPE svg PUBLIC "-//W3C//DTD SVG 1.1//EN" "http://www.w3.org/Graphics/SVG/1.1/DTD/svg11.dtd">
<svg version="1.1" id="Layer_1" xmlns="http://www.w3.org/2000/svg" xmlns:xlink="http://www.w3.org/1999/xlink" x="0px" y="0px"
	 viewBox="0 0 200 200" style="enable-background:new 0 0 200 200;" xml:space="preserve">
<style type="text/css">
	.st0{fill:#FFFFFF;}
</style>
<g>
	<path class="st0" d="M145.8,117.5c-0.1-0.2-0.2-0.4-0.3-0.6c-1.6-2.9-4.8-6.5-9.4-10.8L136,106l0,0l0,0h0c-2.1-2-3.4-3.3-4-4
		c-1-1.3-1.2-2.6-0.7-4c0.4-1,1.9-3.2,4.4-6.4c1.3-1.7,2.4-3.1,3.2-4.2c5.7-7.5,8.1-12.3,7.3-14.4l-0.3-0.5
		c-0.2-0.3-0.7-0.6-1.5-0.8c-0.8-0.2-1.9-0.3-3.1-0.1l-14.1,0.1c-0.2-0.1-0.6-0.1-1,0c-0.4,0.1-0.6,0.1-0.6,0.1l-0.2,0.1L125,72
		c-0.2,0.1-0.3,0.3-0.5,0.5c-0.2,0.2-0.4,0.5-0.5,0.9c-1.5,4-3.3,7.6-5.2,11c-1.2,2-2.3,3.8-3.3,5.3c-1,1.5-1.9,2.6-2.5,3.3
		c-0.7,0.7-1.3,1.3-1.9,1.7c-0.6,0.4-1,0.6-1.3,0.5c-0.3-0.1-0.6-0.1-0.8-0.2c-0.5-0.3-0.8-0.7-1.1-1.2c-0.3-0.5-0.5-1.1-0.6-1.9
		c-0.1-0.8-0.2-1.4-0.2-2c0-0.6,0-1.3,0-2.4c0-1,0-1.7,0-2.1c0-1.2,0-2.6,0.1-4c0-1.5,0.1-2.6,0.1-3.5c0-0.8,0-1.7,0-2.7
		s-0.1-1.7-0.2-2.2c-0.1-0.5-0.3-1.1-0.5-1.6c-0.2-0.5-0.6-0.9-1-1.2c-0.4-0.3-1-0.5-1.6-0.7c-1.7-0.4-3.9-0.6-6.6-0.6
		c-6.1-0.1-10,0.3-11.7,1.2c-0.7,0.4-1.3,0.8-1.9,1.5c-0.6,0.7-0.7,1.1-0.2,1.2c2,0.3,3.3,1,4.2,2.1l0.3,0.6
		c0.2,0.4,0.5,1.2,0.7,2.3c0.2,1.1,0.4,2.3,0.4,3.6c0.2,2.4,0.2,4.4,0,6.1c-0.2,1.7-0.3,3-0.5,4c-0.1,0.9-0.4,1.7-0.7,2.3
		c-0.3,0.6-0.5,0.9-0.6,1.1c-0.1,0.1-0.2,0.2-0.2,0.2c-0.4,0.2-0.9,0.2-1.3,0.2c-0.5,0-1-0.2-1.7-0.7c-0.7-0.5-1.3-1.1-2-1.9
		c-0.7-0.8-1.5-1.9-2.4-3.4c-0.9-1.4-1.8-3.1-2.7-5.1l-0.8-1.4c-0.5-0.9-1.2-2.2-2-4c-0.8-1.7-1.6-3.4-2.3-5.1
		c-0.3-0.7-0.7-1.2-1.2-1.6l-0.2-0.1c-0.2-0.1-0.4-0.3-0.8-0.4c-0.4-0.1-0.7-0.3-1.1-0.3l-13.4,0.1c-1.4,0-2.3,0.3-2.8,0.9l-0.2,0.3
		c-0.1,0.2-0.1,0.4-0.1,0.8c0,0.4,0.1,0.8,0.3,1.3c2,4.6,4.1,9,6.4,13.3c2.3,4.3,4.3,7.7,6,10.3c1.7,2.6,3.4,5.1,5.2,7.4
		c1.8,2.3,2.9,3.8,3.5,4.5c0.6,0.7,1,1.1,1.3,1.5l1.2,1.2c0.8,0.8,1.9,1.7,3.5,2.8c1.5,1.1,3.2,2.2,5,3.2c1.8,1.1,4,1.9,6.4,2.6
		c2.4,0.7,4.8,0.9,7.2,0.8h5.6c1.1-0.1,2-0.5,2.6-1.1l0.2-0.2c0.1-0.2,0.3-0.5,0.4-0.9c0.1-0.4,0.2-0.9,0.2-1.3
		c0-1.4,0.1-2.7,0.3-3.8c0.2-1.1,0.5-2,0.8-2.5c0.3-0.6,0.7-1.1,1.1-1.4c0.4-0.4,0.7-0.6,0.8-0.7c0.2-0.1,0.3-0.1,0.4-0.2
		c0.8-0.3,1.7,0,2.8,0.8c1.1,0.8,2.1,1.7,3,2.8c0.9,1.1,2,2.4,3.4,3.8c1.3,1.4,2.4,2.4,3.4,3.1l1,0.6c0.7,0.4,1.5,0.8,2.5,1.1
		c1,0.3,2,0.4,2.7,0.2l12.5-0.2c1.2,0,2.2-0.2,2.9-0.6c0.7-0.4,1.1-0.9,1.2-1.3c0.1-0.5,0.1-1,0-1.7
		C146,118.2,145.9,117.7,145.8,117.5z"/>
</g>
</svg>
