<?xml version="1.0" encoding="utf-8"?>
<!-- Generator: Adobe Illustrator 17.1.0, SVG Export Plug-In . SVG Version: 6.00 Build 0)  -->
<!DOCTYPE svg PUBLIC "-//W3C//DTD SVG 1.1//EN" "http://www.w3.org/Graphics/SVG/1.1/DTD/svg11.dtd">
<svg version="1.1" id="Capa_1" xmlns="http://www.w3.org/2000/svg" xmlns:xlink="http://www.w3.org/1999/xlink" x="0px" y="0px"
	 viewBox="0 0 512 512" enable-background="new 0 0 512 512" xml:space="preserve">
<rect fill="#29ABE2" width="512" height="512"/>
<g>
	<path fill="#FFFFFF" d="M359.641,112.344V26.021C359.641,12.26,348.386,1,334.62,1H26.025C12.264,1,1.004,12.26,1.004,26.021
		v16.264v326.109v11.264c0,9.17,5.421,17.928,13.345,22.098l190.161,98.421c8.34,4.17,18.349-1.664,18.349-11.26v-95.915H334.62
		c13.766,0,25.021-11.255,25.021-25.021V231.199h-50.042v99.251c0,7.089-5.421,12.511-12.511,12.511h-73.812V214.518v-81.319v-2.502
		c0-9.174-5.421-17.932-13.345-22.102L97.753,51.047h199.335c7.089,0,12.511,5.421,12.511,12.511v49.208h50.042V112.344z"/>
	<path fill="#FFFFFF" d="M423.862,71.472l81.319,81.319c10.426,10.425,10.426,25.855,0,36.281l-81.319,81.319
		c-10.426,10.425-26.276,10.847-36.702,0.421c-10.004-10.004-8.757-26.689,0.838-36.698l36.694-36.281h-142.2
		c-7.085,0-14.179-2.919-18.766-8.34c-11.677-12.511-8.757-34.613,6.255-42.953c3.753-2.085,8.34-3.336,12.511-3.336h142.204
		c0,0-36.277-36.281-36.694-36.281c-9.596-9.591-10.847-26.689-0.838-36.281C397.173,60.634,413.437,61.047,423.862,71.472z"/>
</g>
</svg>
