<?xml version="1.0" encoding="utf-8"?>
<!-- Generator: Adobe Illustrator 17.1.0, SVG Export Plug-In . SVG Version: 6.00 Build 0)  -->
<!DOCTYPE svg PUBLIC "-//W3C//DTD SVG 1.1//EN" "http://www.w3.org/Graphics/SVG/1.1/DTD/svg11.dtd">
<svg version="1.1" id="Layer_1" xmlns="http://www.w3.org/2000/svg" xmlns:xlink="http://www.w3.org/1999/xlink" x="0px" y="0px"
	 viewBox="0 0 200 200" enable-background="new 0 0 200 200" xml:space="preserve">
<g>
	<path fill="#FFFFFF" d="M163.4,47.1l-3.1-2.8c-5.2-4.6-13-4.1-17.6,1.1l-52.4,59.4L74.4,91c-5.2-4.6-13-4.1-17.6,1.1L54,95.3
		c-2.2,2.5-3.4,5.9-3.2,9.3c0.2,3.4,1.7,6.6,4.2,8.9l29,27.2c2.5,2.4,5.9,3.7,9.3,3.5s6.7-1.8,8.9-4.5l62.6-74.4
		c2.2-2.6,3.3-6,3-9.4C167.5,52.5,166,49.3,163.4,47.1z"/>
</g>
</svg>
